# xmcd CD database file
#
# Track frame offsets:
#	150
#	17967
#	32910
#	48942
#	66020
#	88019
#	105594
#	125707
#	141271
#	157950
#	173788
#	193013
#	209374
#	230273
#	257039
#
# Disc length: 3712 seconds
#
# Revision: 0
# Processed by: cddbd v1.5.2PL0 Copyright (c) Steve Scherf et al.
# Submitted via: CDex 1.51
#
DISCID=d00e7e0f
DTITLE=* - The Rebirth Of NU-COOL Tributes  CD1 CHIC TEMPO
DYEAR=1900
DGENRE=Jazz
TTITLE0=01.Emilie Hanak (Brenda Lee) - You Were Always On My Mind
TTITLE1=02.Pink Turtle (The Police) - Every Breath You Take
TTITLE2=03.Matthieu Bor Á (Ray Charles) - Georgia On My Mind
TTITLE3=04.Tok Tok Tok (The Beatles) - Day Tripper
TTITLE4=05.Pat Kelly (Procol Harum) - A Whiter Shade Of Pale
TTITLE5=06.Jimmy London (Elvis Presley) - It's Now Or Never
TTITLE6=07.El Rubello (Tom Jones) - It's Not Unusual
TTITLE7=08.Lex Luthor (John Lennon) - Imagine
TTITLE8=09.$olal ft. Melonie Cannon (Abba) - Dancing Queen
TTITLE9=10.Yuliet Topaz (Corinne Bailey Rae) - Put Your Records On
TTITLE10=11.Trinah (Al Green) - Let's Stay Together
TTITLE11=12.Jet Set Sweden (Jean-Michel Jarre) - Oxygene
TTITLE12=13.Tok Tok Tok (Lou Reed) - Walk On The Wild Side
TTITLE13=14.Pete Kuzma ft. Bilal (Radiohead) - High and Dry
TTITLE14=15.Karen Aoki ft. Native (Sade) - Smooth Operator
EXTD=
EXTT0=
EXTT1=
EXTT2=
EXTT3=
EXTT4=
EXTT5=
EXTT6=
EXTT7=
EXTT8=
EXTT9=
EXTT10=
EXTT11=
EXTT12=
EXTT13=
EXTT14=
PLAYORDER=
